# xmcd
#
# Track frame offsets: 
#        150
#        123362
#        196927
#
# Disc length: 3596 seconds
#
# Revision: 0
# Processed by: cddbd v1.5.2PL0 Copyright (c) Steve Scherf et al.
# Submitted via: ExactAudioCopy v1.0b3
#
DISCID=200e0a03
DTITLE=Kalle Sändare - Boxen e' klar - CD 5 - Talmannen
DYEAR=2014
DGENRE=Comedy
TTITLE0=Positiv och negativ ekononi - Utdrag föreläsning Handelshögsko
TTITLE0=lan 1975
TTITLE1=At-frågan - Utdrag föreläsning Odontologiska föreningen 1975
TTITLE2=Ny operationsteknik - Utdrag föreläsning Medivinska Föreningen
TTITLE2=1975
EXTD=
EXTT0=
EXTT1=
EXTT2=
PLAYORDER=
